<svg width="28" height="28" viewBox="0 0 28 28" fill="none" xmlns="http://www.w3.org/2000/svg">
<g clip-path="url(#clip0_3155_2692)">
<path d="M0 0H28V28H0V0Z" fill="#012169"/>
<path d="M3.28125 0L13.9563 10.5583L24.5875 0H28V3.61667L17.5 14.0583L28 24.4417V28H24.5L14 17.5583L3.54375 28H0V24.5L10.4563 14.1167L0 3.73333V0H3.28125Z" fill="white"/>
<path d="M18.55 16.3917L28 25.6667V28L16.1437 16.3917H18.55ZM10.5 17.5583L10.7625 19.6L2.3625 28H0L10.5 17.5583ZM28 0V0.175L17.1062 11.1417L17.1938 8.575L25.8125 0H28ZM0 0L10.4563 10.2667H7.83125L0 2.45V0Z" fill="#C8102E"/>
<path d="M10.5437 0V28H17.5437V0H10.5437ZM0 9.33333V18.6667H28V9.33333H0Z" fill="white"/>
<path d="M0 11.2583V16.8583H28V11.2583H0ZM11.9437 0V28H16.1437V0H11.9437Z" fill="#C8102E"/>
</g>
<defs>
<clipPath id="clip0_3155_2692">
<rect width="28" height="28" rx="14" fill="white"/>
</clipPath>
</defs>
</svg>
