<svg width="40" height="41" viewBox="0 0 40 41" fill="none" xmlns="http://www.w3.org/2000/svg">
<path d="M24.0017 19.7023C24.1251 20.5346 23.9829 21.3845 23.5954 22.1313C23.2079 22.8781 22.5948 23.4837 21.8433 23.862C21.0918 24.2403 20.2401 24.3719 19.4094 24.2383C18.5788 24.1046 17.8114 23.7124 17.2165 23.1175C16.6216 22.5226 16.2294 21.7552 16.0957 20.9245C15.9621 20.0939 16.0937 19.2422 16.472 18.4907C16.8502 17.7392 17.4558 17.1261 18.2026 16.7386C18.9494 16.3511 19.7994 16.2089 20.6317 16.3323C21.4806 16.4582 22.2665 16.8538 22.8734 17.4606C23.4802 18.0675 23.8758 18.8534 24.0017 19.7023Z" stroke="white" stroke-width="1.48286" stroke-linecap="round" stroke-linejoin="round"/>
<path d="M25.502 14.832H25.512" stroke="white" stroke-width="1.48286" stroke-linecap="round" stroke-linejoin="round"/>
<path d="M24.7143 10.2185H14.8286C12.0987 10.2185 9.88574 12.4315 9.88574 15.1614V25.0471C9.88574 27.7769 12.0987 29.9899 14.8286 29.9899H24.7143C27.4442 29.9899 29.6572 27.7769 29.6572 25.0471V15.1614C29.6572 12.4315 27.4442 10.2185 24.7143 10.2185Z" stroke="white" stroke-width="1.48286" stroke-linecap="round" stroke-linejoin="round"/>
</svg>
