<?xml version="1.0" standalone="no"?>
<!DOCTYPE svg PUBLIC "-//W3C//DTD SVG 20010904//EN"
 "http://www.w3.org/TR/2001/REC-SVG-20010904/DTD/svg10.dtd">
<svg version="1.0" xmlns="http://www.w3.org/2000/svg"
 width="1317.000000pt" height="1195.000000pt" viewBox="0 0 1317.000000 1195.000000"
 preserveAspectRatio="xMidYMid meet">

<g transform="translate(0.000000,1195.000000) scale(0.100000,-0.100000)"
fill="black" stroke="black">
<path d="M6282 11919 c-23 -12 -55 -33 -70 -48 -24 -23 -152 -179 -170 -207
-4 -6 -59 -15 -122 -21 -136 -12 -214 -38 -270 -92 -44 -42 -55 -73 -46 -135
9 -60 61 -117 140 -156 l63 -31 -23 -57 c-27 -67 -31 -149 -9 -192 20 -38 82
-70 138 -70 52 0 209 73 302 141 33 24 79 56 102 71 l41 27 148 -60 c81 -33
165 -69 188 -81 62 -32 151 -35 208 -8 39 18 52 31 74 77 l27 54 -17 61 c-9
33 -28 82 -41 109 -14 26 -25 54 -25 61 0 7 22 27 47 43 57 36 88 79 97 134
19 120 -86 181 -310 181 l-93 0 -33 41 c-74 93 -115 132 -160 155 -60 30 -128
32 -186 3z m168 -65 c17 -15 49 -53 71 -86 22 -32 54 -74 70 -93 l31 -34 156
0 c192 1 220 -8 235 -70 9 -38 -53 -90 -162 -137 -50 -21 -91 -41 -91 -45 0
-4 20 -42 45 -83 85 -144 106 -192 95 -220 -13 -34 -54 -43 -105 -24 -22 9
-87 37 -145 63 -139 63 -311 124 -330 117 -8 -3 -78 -44 -155 -92 -241 -151
-312 -176 -330 -119 -7 22 44 140 93 211 34 51 44 76 33 82 -5 3 -64 15 -132
27 -68 12 -130 26 -136 32 -22 16 -15 75 11 102 52 52 134 78 291 91 44 4 90
10 101 15 12 4 61 62 109 129 48 66 99 129 113 140 36 29 93 26 132 -6z"/>
<path d="M8285 11746 c-22 -7 -69 -27 -104 -45 l-65 -33 -70 15 c-120 26 -239
40 -304 35 -69 -5 -102 -24 -140 -79 -20 -28 -23 -43 -19 -86 7 -64 26 -95 88
-134 l48 -32 -57 -37 c-108 -71 -152 -136 -152 -224 0 -55 30 -100 82 -127 39
-20 52 -21 163 -16 66 4 187 18 268 32 103 17 154 22 167 15 19 -10 70 -70
178 -209 71 -91 126 -129 198 -137 108 -13 179 36 210 143 14 49 15 70 5 148
-6 49 -12 98 -14 109 -1 13 8 22 36 32 116 41 158 133 104 229 -19 34 -38 48
-122 90 -55 28 -118 58 -140 67 -30 13 -47 30 -69 70 -45 82 -80 122 -133 150
-61 33 -108 40 -158 24z m149 -90 c18 -18 47 -69 66 -112 18 -44 38 -84 44
-91 6 -6 67 -32 136 -58 166 -61 216 -110 167 -159 -17 -17 -43 -25 -122 -35
-127 -16 -137 -19 -131 -39 14 -43 56 -296 56 -332 0 -45 -27 -80 -62 -80 -23
0 -95 70 -292 284 l-110 118 -59 -6 c-32 -3 -119 -19 -193 -36 -168 -37 -293
-41 -324 -10 -11 11 -20 25 -20 32 0 34 80 118 208 217 23 18 42 38 42 44 -1
7 -36 36 -79 65 -91 61 -114 96 -87 137 10 14 33 29 58 36 49 13 103 5 258
-36 52 -14 104 -25 115 -25 11 0 47 16 80 36 152 93 200 102 249 50z"/>
<path d="M4375 11474 c-74 -38 -129 -125 -155 -245 -11 -50 -16 -58 -49 -72
-129 -57 -326 -228 -356 -309 -17 -46 -17 -47 8 -102 32 -70 66 -89 159 -89
l68 0 0 -82 c0 -154 35 -248 103 -276 54 -23 127 -17 179 14 72 42 102 71 204
198 53 66 99 119 103 119 4 0 42 -9 84 -19 90 -23 339 -45 403 -35 51 7 105
47 131 97 38 75 -12 193 -135 315 l-84 83 65 67 c65 68 107 135 107 172 0 31
-36 95 -66 119 -21 17 -41 21 -98 21 -76 0 -196 -19 -287 -46 l-57 -17 -58 36
c-108 66 -205 85 -269 51z m131 -44 c23 -12 72 -48 108 -81 76 -70 47 -70 286
-3 200 57 238 56 260 -2 16 -41 -7 -70 -137 -175 -68 -55 -123 -103 -123 -106
0 -3 61 -68 135 -145 150 -154 175 -199 139 -239 -23 -26 -33 -24 -279 35 -99
24 -204 46 -234 49 -54 4 -56 4 -104 -42 -27 -25 -86 -89 -130 -141 -221 -261
-249 -268 -255 -70 -3 75 1 129 12 178 9 39 16 74 16 78 0 4 -35 3 -77 -2 -43
-5 -113 -9 -156 -9 -71 0 -81 3 -98 24 -10 13 -19 26 -19 30 0 26 73 110 134
153 68 48 258 148 283 148 7 0 17 19 23 43 39 152 54 197 76 234 39 68 69 77
140 43z"/>
<path d="M9417 11095 c-80 -55 -88 -129 -27 -240 l40 -73 -67 -21 c-84 -25
-157 -70 -177 -109 -28 -54 -30 -105 -7 -150 49 -96 110 -122 363 -156 114
-16 184 -30 189 -38 5 -7 25 -62 45 -123 37 -111 119 -292 151 -332 78 -95
215 -99 292 -7 35 43 75 157 86 245 l7 57 77 3 c67 4 83 8 115 33 63 47 82
120 51 193 -9 20 -71 94 -140 164 -102 105 -126 135 -135 171 -19 78 -47 126
-92 155 -39 26 -49 28 -142 28 -120 1 -133 6 -283 106 -139 93 -195 119 -258
119 -37 0 -60 -6 -88 -25z m191 -115 c34 -16 119 -66 189 -111 l126 -82 62 12
c70 12 164 14 181 3 23 -15 34 -53 35 -119 0 -37 3 -75 7 -84 7 -15 177 -157
250 -208 28 -20 62 -75 62 -103 0 -5 -11 -20 -25 -33 -34 -34 -72 -32 -205 12
-60 20 -112 34 -115 31 -3 -2 -10 -85 -16 -183 -12 -211 -21 -239 -78 -256
-64 -19 -70 -12 -164 226 -33 83 -75 191 -94 242 -26 68 -40 93 -56 97 -12 4
-83 11 -157 16 -154 10 -282 33 -316 55 -13 8 -28 24 -34 35 -28 52 22 91 187
145 62 20 115 40 118 44 2 5 -16 39 -42 77 -47 70 -82 139 -83 162 0 23 39 52
73 52 17 0 60 -13 95 -30z"/>
<path d="M2689 10807 c-101 -29 -208 -136 -281 -284 -23 -46 -45 -83 -49 -83
-4 0 -53 -5 -110 -10 -143 -15 -335 -63 -434 -109 -186 -87 -295 -185 -429
-384 l-79 -115 -61 -7 c-160 -19 -276 -111 -302 -241 -9 -44 12 -107 52 -160
l35 -46 -24 -36 c-120 -184 -316 -563 -400 -777 -237 -602 -408 -1254 -487
-1855 -6 -47 -18 -119 -25 -160 -7 -41 -21 -138 -29 -215 -9 -77 -23 -205 -33
-285 -21 -189 -29 -735 -14 -970 26 -393 69 -719 130 -975 10 -44 28 -123 40
-175 84 -364 176 -658 324 -1040 47 -122 118 -293 186 -451 102 -237 291 -533
491 -769 l47 -55 -10 -72 c-23 -162 59 -327 196 -392 119 -57 390 -87 702 -79
213 6 343 29 520 93 95 35 227 97 255 120 8 7 29 16 45 19 52 13 170 84 276
168 244 191 440 412 555 626 16 30 38 70 49 90 12 24 21 65 25 115 l5 79 32
-56 c34 -60 98 -141 312 -399 214 -257 274 -363 292 -511 13 -109 7 -125 -75
-204 -76 -74 -109 -82 -314 -82 -122 0 -166 5 -257 26 -141 32 -298 46 -373
33 -134 -24 -240 -133 -257 -265 -8 -59 28 -183 74 -255 58 -93 238 -226 390
-290 223 -93 387 -92 766 6 77 20 168 48 201 61 139 57 285 194 387 366 l67
111 0 -59 c0 -56 -54 -279 -95 -394 -9 -25 -25 -80 -36 -122 -17 -69 -18 -81
-5 -112 18 -44 51 -66 99 -66 58 0 74 14 116 98 22 43 56 98 76 122 21 25 50
63 64 85 62 96 150 216 215 296 39 48 82 101 96 119 l25 32 72 -11 c39 -6 95
-11 122 -11 45 0 51 -3 55 -22 26 -150 44 -221 86 -348 51 -154 86 -232 172
-382 50 -88 74 -112 122 -124 33 -8 83 12 97 39 28 52 28 77 -1 175 -16 53
-32 120 -35 147 -4 28 -13 88 -20 135 -8 47 -16 108 -18 137 l-4 52 51 -102
c103 -204 173 -281 404 -444 63 -45 169 -68 278 -60 178 13 289 61 404 177 63
63 86 96 142 205 l66 129 7 -60 c17 -142 75 -201 222 -225 56 -10 86 -9 167 4
168 27 247 84 296 214 26 68 56 263 64 418 4 61 9 137 12 170 l5 60 62 33
c136 70 268 207 336 347 81 167 141 354 141 439 l0 50 38 -73 c20 -40 83 -134
140 -209 131 -174 144 -201 135 -296 -15 -186 72 -338 242 -422 74 -37 84 -39
169 -39 73 0 101 4 140 23 47 21 52 22 96 7 37 -12 58 -30 105 -86 74 -89 136
-143 200 -178 46 -24 59 -26 175 -26 111 0 130 3 173 24 26 13 68 47 93 75 42
48 116 183 158 289 l18 47 52 -7 c28 -5 110 -8 181 -8 114 0 146 4 257 33 374
96 647 332 773 667 36 95 57 134 76 140 30 10 133 81 167 116 63 64 77 102 77
214 0 100 0 101 41 170 64 108 90 165 104 225 14 60 25 91 95 250 108 247 223
618 296 960 55 254 112 536 129 637 18 107 23 154 52 513 15 190 13 1237 -2
1415 -21 238 -41 422 -56 515 -8 52 -25 169 -39 260 -34 220 -78 444 -125 620
-51 196 -90 350 -96 380 -4 18 6 43 35 87 98 152 94 246 -15 363 -59 63 -158
108 -277 126 -193 29 -569 9 -837 -46 -79 -16 -146 -27 -148 -25 -2 2 3 26 12
53 16 49 18 50 64 57 150 21 194 144 118 328 -41 98 -43 121 -20 198 21 70 14
180 -15 237 -44 87 -121 119 -306 129 l-120 6 -90 90 c-49 49 -111 100 -137
113 -94 48 -198 21 -238 -61 -20 -41 -22 -55 -16 -126 l7 -79 -78 0 c-128 -1
-195 -44 -209 -136 -8 -54 6 -90 49 -132 47 -46 186 -126 278 -161 81 -31 134
-62 156 -91 13 -17 28 -95 43 -220 15 -126 38 -228 66 -289 15 -35 21 -57 14
-61 -5 -3 -63 -23 -128 -44 -155 -50 -312 -108 -394 -145 -129 -58 -257 -157
-341 -266 -88 -114 -102 -146 -102 -245 0 -93 15 -132 95 -250 84 -124 128
-232 149 -370 6 -36 15 -95 21 -131 28 -180 53 -579 57 -929 4 -390 -5 -645
-36 -940 -10 -102 -24 -243 -31 -315 -16 -178 -33 -276 -91 -515 -67 -276
-221 -785 -304 -1001 -72 -192 -103 -239 -240 -369 -63 -60 -107 -140 -125
-227 -14 -63 3 -139 50 -232 34 -69 36 -92 14 -216 -12 -67 -15 -127 -11 -235
l5 -145 -37 42 c-52 58 -147 235 -172 318 -29 99 -104 281 -139 337 -77 124
-225 115 -292 -17 -28 -54 -21 -189 16 -293 49 -142 176 -357 309 -522 33 -41
65 -82 71 -90 17 -23 -72 49 -144 116 -117 110 -231 202 -257 207 -40 8 -90
-11 -115 -43 l-23 -30 4 81 c2 44 -4 131 -13 194 -46 319 -219 611 -439 743
-83 50 -222 107 -307 127 -41 10 -95 23 -120 29 -68 19 -219 -10 -330 -62
-201 -94 -309 -212 -310 -339 0 -29 -1 -53 -3 -53 -2 0 -24 20 -50 45 -61 58
-91 73 -178 85 -90 13 -170 0 -252 -42 -60 -30 -60 -30 -53 -6 30 102 30 124
5 174 -35 70 -85 94 -199 94 -97 0 -195 -19 -269 -51 -110 -47 -217 -206 -318
-477 -108 -287 -145 -399 -178 -542 -68 -297 -108 -455 -116 -464 -8 -9 -7 15
11 209 18 193 22 450 11 620 -23 345 -71 536 -155 613 -65 60 -116 75 -238 70
-90 -3 -109 -7 -150 -30 -55 -33 -87 -84 -95 -150 l-6 -49 -22 38 c-110 194
-235 264 -535 299 -189 22 -346 5 -500 -56 -210 -83 -373 -335 -356 -550 3
-41 9 -86 12 -100 4 -17 -4 -10 -24 22 -41 63 -97 101 -186 129 -60 19 -78 29
-92 53 -10 17 -40 61 -66 97 -63 86 -141 230 -289 529 -251 511 -335 797 -369
1265 -5 61 -13 166 -19 235 -6 69 -15 355 -21 635 -5 281 -13 535 -16 565 -3
34 5 124 21 240 16 110 30 270 35 395 5 116 11 217 14 225 3 8 10 60 16 115
24 235 33 295 60 380 16 49 38 134 49 188 15 73 38 136 89 245 38 81 75 165
82 187 19 60 109 261 150 335 20 36 79 145 130 243 80 154 100 184 144 220 77
63 143 132 161 168 9 17 22 58 29 90 l12 59 69 -176 c95 -240 141 -292 252
-282 26 3 55 8 64 12 15 7 15 -2 -2 -96 -38 -209 -51 -317 -59 -488 -17 -377
32 -825 113 -1020 58 -141 181 -337 244 -389 102 -84 249 -60 425 71 123 91
168 168 168 288 0 58 -29 250 -65 425 -45 223 -67 627 -49 905 l7 95 81 23
c44 12 126 45 181 71 55 27 101 48 101 48 1 -1 -4 -31 -12 -67 -7 -36 -16
-137 -20 -225 -6 -148 -4 -170 20 -288 25 -120 81 -289 128 -381 110 -218 321
-400 527 -456 109 -29 315 3 434 68 73 39 171 135 227 220 28 42 50 72 50 67
0 -6 4 -60 9 -120 28 -331 209 -575 427 -575 71 0 167 24 221 56 106 61 199
233 222 412 15 113 49 499 56 637 3 66 18 220 32 342 l27 222 110 55 c207 103
429 310 558 520 34 55 72 116 86 134 l24 33 36 -62 c21 -34 87 -117 148 -183
341 -369 476 -617 610 -1116 42 -156 43 -231 3 -334 -28 -73 -63 -108 -162
-165 -90 -51 -131 -54 -239 -21 -80 25 -136 64 -179 127 -28 40 -34 59 -37
115 -3 40 2 97 12 140 47 213 54 311 31 451 -34 210 -138 319 -342 362 -87 19
-169 19 -266 0 -171 -33 -251 -109 -250 -241 1 -69 15 -102 73 -169 22 -25 45
-56 52 -68 25 -48 9 -206 -56 -562 -19 -102 -20 -179 -1 -283 24 -140 53 -188
191 -313 147 -135 316 -204 569 -234 72 -8 171 -15 220 -15 91 0 461 42 525
60 19 6 38 10 42 10 3 0 -8 -25 -27 -55 -34 -57 -60 -116 -119 -270 -34 -89
-55 -182 -97 -425 -12 -69 -34 -165 -49 -215 -15 -49 -33 -117 -39 -150 -16
-82 -75 -351 -113 -511 l-31 -132 -51 30 c-28 17 -75 47 -104 67 l-54 36 7
110 c4 61 8 215 11 343 2 129 8 251 14 271 5 20 24 51 42 68 41 38 157 121
223 159 132 75 182 146 152 216 -17 40 -41 61 -87 77 -91 31 -699 39 -859 11
-126 -22 -215 -91 -247 -193 -26 -83 -14 -132 52 -220 l55 -72 -4 -205 c-5
-215 -23 -331 -79 -499 l-21 -64 -21 29 c-11 16 -45 56 -75 89 -75 84 -181
227 -252 342 -34 54 -96 146 -138 205 -42 60 -93 136 -113 170 -21 35 -60 97
-88 138 -28 41 -70 104 -94 140 -79 122 -215 305 -265 359 l-50 54 -56 -5
c-60 -5 -101 -28 -123 -69 -17 -32 -10 -266 11 -364 9 -38 18 -95 22 -125 l7
-55 -47 77 c-60 100 -119 157 -208 202 -133 68 -279 79 -427 34 -84 -26 -130
-50 -208 -107 -60 -43 -68 -53 -117 -156 -29 -60 -56 -128 -59 -150 -4 -22
-13 -78 -21 -125 -8 -47 -15 -128 -16 -180 0 -52 -4 -120 -8 -150 l-7 -55
-101 310 c-56 171 -111 347 -123 393 -25 99 -78 250 -113 319 -36 71 -70 108
-123 133 -121 59 -197 -39 -229 -295 -3 -27 -28 -185 -55 -350 -27 -165 -56
-354 -65 -420 -9 -66 -25 -154 -35 -196 -11 -41 -29 -136 -41 -210 -11 -73
-24 -140 -28 -147 -5 -9 -24 14 -55 67 -25 43 -72 110 -104 148 -110 134 -389
548 -492 733 -36 63 -112 185 -169 270 -58 85 -113 169 -124 185 -10 17 -53
84 -96 150 -42 66 -97 156 -121 200 -43 80 -98 175 -205 358 -31 53 -67 104
-78 112 -12 8 -41 15 -64 15 -35 0 -49 -6 -83 -38 -46 -44 -45 -37 -30 -247
30 -409 56 -877 66 -1158 l7 -208 -29 11 c-58 22 -119 -8 -143 -72 -14 -38 10
-112 55 -168 l37 -45 -7 -307 c-9 -462 32 -962 90 -1107 50 -124 471 -245 794
-228 85 5 322 47 400 72 13 4 16 -5 17 -50 2 -67 24 -110 78 -147 85 -57 198
-72 324 -43 192 46 262 146 352 507 28 112 53 210 55 218 6 18 80 -117 152
-275 90 -201 160 -338 193 -378 33 -40 95 -77 129 -77 12 0 32 -13 46 -29 50
-60 165 -67 265 -18 77 38 185 145 217 215 25 56 26 62 33 362 8 313 15 420
29 420 41 0 65 -388 40 -654 -17 -171 6 -244 88 -285 47 -23 124 -33 180 -22
l42 8 1 -41 c1 -98 52 -156 136 -156 59 0 106 27 178 100 33 34 67 65 76 70
10 6 43 0 95 -17 67 -21 103 -26 234 -30 91 -3 185 -1 226 6 82 12 193 57 271
108 29 20 55 34 56 32 2 -2 19 -30 38 -62 35 -60 88 -111 147 -141 58 -30 263
-77 367 -84 187 -13 309 10 382 73 l41 35 33 -17 c47 -24 133 -22 191 4 121
55 231 249 309 548 16 60 47 160 69 220 23 61 50 135 60 165 65 188 74 172 30
-50 -70 -343 -148 -558 -253 -694 -56 -71 -64 -103 -41 -151 29 -62 93 -81
162 -47 175 85 305 185 524 402 153 152 157 157 208 263 77 161 102 267 107
464 5 140 2 175 -17 265 -29 135 -68 227 -145 342 l-63 94 35 33 c34 33 140
170 200 259 148 219 206 529 147 790 -43 194 -106 310 -245 455 -151 157 -279
245 -356 245 -18 0 -33 3 -33 6 0 4 25 33 55 65 105 114 166 226 215 398 62
214 63 305 10 551 -44 200 -93 364 -146 488 -72 169 -209 430 -273 522 -33 47
-89 128 -125 180 -36 53 -88 122 -117 155 -32 37 -70 97 -97 155 -41 88 -43
97 -30 120 31 56 89 31 183 -81 82 -96 140 -129 229 -129 74 0 130 24 183 77
61 61 76 103 71 192 -5 93 -41 168 -121 252 -64 66 -112 100 -238 168 -166 89
-185 93 -422 99 -175 4 -220 2 -280 -13 -112 -27 -204 -75 -279 -144 -36 -33
-68 -61 -71 -61 -3 0 -8 12 -11 26 -11 42 -78 134 -142 195 -150 141 -394 218
-658 207 -126 -6 -234 -35 -350 -96 -71 -37 -204 -154 -247 -216 -13 -20 -27
-36 -32 -36 -4 0 -23 17 -42 39 -49 54 -176 139 -242 163 -84 29 -211 34 -327
13 -115 -20 -227 -71 -336 -153 -105 -78 -269 -251 -332 -349 -29 -45 -56 -82
-59 -83 -4 0 -12 30 -18 66 -26 145 -77 241 -180 337 -90 82 -202 135 -313
147 -139 14 -201 1 -356 -75 -205 -101 -301 -203 -420 -440 -79 -159 -149
-370 -193 -580 l-22 -104 -57 132 c-71 165 -89 201 -156 308 -30 47 -54 89
-54 93 0 4 21 -11 48 -35 66 -59 123 -83 177 -74 84 12 125 67 125 168 0 54
-6 76 -35 135 -31 60 -57 91 -179 207 -120 113 -148 145 -170 195 -22 49 -29
58 -41 47 -11 -10 -11 -15 1 -28 8 -8 14 -27 14 -41 0 -34 -49 -56 -85 -40
-43 20 -27 4 25 -24 28 -15 50 -31 50 -36 0 -4 5 -8 11 -8 17 0 136 -100 199
-167 149 -158 187 -233 156 -307 -17 -42 -49 -53 -99 -37 -39 13 -74 46 -195
185 -141 162 -193 216 -262 270 -98 78 -94 78 -86 12 6 -47 5 -56 -8 -56 -10
0 12 -38 61 -107 191 -270 233 -329 249 -348 33 -41 124 -183 124 -194 0 -6 5
-11 10 -11 6 0 10 -5 10 -11 0 -6 8 -23 18 -37 31 -45 79 -163 97 -238 32
-132 -12 -234 -101 -234 -35 0 -47 5 -71 33 -34 39 -38 48 -94 232 -43 143
-73 219 -174 450 -77 176 -123 267 -184 362 -28 44 -51 87 -51 96 0 21 27 36
53 29 16 -4 19 -2 14 12 -4 10 -7 30 -7 45 0 15 -6 36 -14 46 -12 17 -15 17
-36 2 -29 -20 -50 -7 -50 32 0 31 -17 52 -35 44 -8 -2 -18 4 -24 15 -7 14 -18
18 -39 14 -32 -4 -33 -2 -47 65 -8 40 11 101 40 128 11 11 26 32 33 48 6 15
18 27 25 27 8 0 19 11 25 25 6 14 16 25 21 25 5 0 14 15 21 34 6 18 22 43 35
56 20 19 27 21 40 10 8 -7 15 -19 15 -26 0 -16 16 -19 25 -4 3 6 17 10 30 10
24 0 29 -8 37 -65 2 -12 15 -23 33 -29 75 -22 78 -24 72 -61 -5 -32 -3 -35 18
-35 33 0 58 -27 51 -55 -5 -19 1 -27 29 -44 l36 -21 -6 38 c-13 78 -62 158
-141 229 -94 86 -161 123 -222 123 -56 0 -121 -30 -150 -69 l-22 -30 -55 55
c-123 124 -442 222 -586 181z m199 -83 c90 -35 264 -139 324 -192 48 -44 48
-44 48 -107 0 -45 -9 -92 -31 -157 l-31 -92 23 -16 c47 -30 110 -94 154 -156
115 -160 164 -317 172 -544 l5 -145 39 -40 c45 -48 59 -81 59 -141 0 -54 -20
-95 -57 -122 -30 -20 -104 -42 -150 -42 -25 -1 -37 -14 -96 -108 -226 -352
-496 -1039 -586 -1487 -23 -110 -45 -247 -51 -305 -6 -58 -17 -175 -25 -260
-9 -85 -17 -297 -20 -470 -3 -173 -7 -326 -10 -340 -8 -39 -9 -611 -1 -760 4
-74 14 -209 21 -300 8 -91 21 -250 30 -355 13 -152 45 -395 59 -450 2 -5 6
-28 11 -50 19 -101 71 -258 126 -382 11 -24 19 -46 19 -49 0 -13 141 -324 181
-400 78 -146 310 -514 366 -580 12 -14 35 -24 66 -28 151 -19 227 -140 207
-331 -6 -53 -18 -106 -33 -139 -29 -62 -162 -276 -183 -292 -8 -6 -67 -62
-132 -124 -105 -102 -262 -237 -346 -298 -126 -93 -344 -198 -515 -248 -113
-33 -377 -60 -561 -58 -93 1 -355 32 -393 46 -15 6 -40 10 -55 10 -32 0 -138
56 -168 90 -36 39 -44 64 -44 141 0 59 5 83 24 120 l25 46 -37 43 c-211 244
-410 585 -560 958 -84 207 -162 410 -194 500 -17 47 -41 105 -53 130 -13 25
-31 68 -40 95 -146 447 -167 523 -228 850 -51 265 -63 344 -71 455 -3 41 -14
156 -23 255 -12 130 -17 282 -18 545 0 337 2 382 27 585 15 121 32 272 38 335
24 243 80 603 131 850 22 107 53 260 70 340 34 164 183 632 277 865 133 332
266 609 373 777 38 59 78 126 89 148 21 40 21 41 1 68 -10 15 -29 36 -41 47
-12 11 -31 38 -42 59 -37 72 1 139 107 194 39 20 69 27 138 30 l89 5 29 41
c16 22 46 65 66 95 64 91 91 123 179 212 168 171 352 241 696 265 53 4 100 10
105 13 5 3 37 63 71 134 116 236 190 284 350 221z m5135 -484 c153 -42 189
-67 258 -171 68 -103 110 -238 111 -354 2 -205 -114 -429 -351 -680 -235 -249
-311 -303 -438 -312 -37 -3 -73 -10 -79 -14 -6 -5 -17 -51 -23 -102 -13 -97
-13 -100 -30 -402 -6 -104 -13 -201 -16 -215 -3 -14 -7 -50 -9 -80 -24 -314
-76 -560 -151 -723 -47 -101 -107 -150 -201 -162 -68 -9 -122 15 -191 86 -61
62 -113 174 -137 292 -23 119 -9 443 30 652 29 155 28 153 48 325 9 74 23 167
31 205 9 39 20 111 26 160 6 50 12 101 14 115 1 14 5 48 8 75 3 28 9 82 13
120 5 39 8 77 7 85 -4 37 31 326 52 435 55 277 163 452 359 583 79 52 90 57
221 86 95 21 132 24 260 21 75 -2 135 -10 188 -25z m-1260 -75 c130 -46 175
-76 210 -145 25 -48 28 -63 24 -125 -5 -91 -18 -137 -72 -253 -58 -128 -69
-176 -62 -274 5 -84 -14 -392 -33 -533 -6 -44 -33 -172 -61 -285 -27 -113 -58
-243 -69 -290 -34 -148 -91 -364 -100 -385 -5 -11 -15 -36 -23 -55 -63 -150
-121 -247 -182 -304 -39 -36 -151 -104 -195 -119 -168 -56 -298 -60 -397 -12
-58 28 -194 155 -214 199 -5 12 -27 43 -48 70 -73 91 -135 285 -161 496 -14
121 -12 364 4 456 8 44 19 113 26 154 12 75 75 248 135 370 18 36 40 88 50
115 10 28 24 57 30 65 7 8 29 53 50 100 88 199 195 362 319 485 139 138 336
262 458 289 116 25 201 20 311 -19z m-1512 -41 c105 -51 185 -116 244 -198 77
-109 97 -183 97 -364 -1 -135 -16 -205 -88 -394 -27 -72 -112 -230 -146 -273
-5 -5 -24 -32 -44 -58 -47 -64 -174 -157 -260 -192 -79 -31 -162 -42 -216 -27
-27 7 -40 7 -47 -1 -20 -26 -31 -168 -31 -409 0 -364 14 -534 61 -761 80 -379
91 -465 68 -510 -30 -56 -142 -135 -239 -167 -73 -25 -128 -22 -196 11 -35 16
-47 31 -76 92 -39 78 -46 100 -134 397 -7 25 -16 59 -19 76 -2 17 -12 50 -21
75 -8 24 -21 96 -29 159 -7 63 -18 140 -24 170 -11 54 -8 337 4 450 37 337
118 764 185 975 106 331 145 433 233 617 104 219 150 269 294 324 178 67 257
68 384 8z m4099 -19 c187 -48 346 -171 431 -334 43 -82 45 -133 7 -166 -38
-33 -135 -67 -190 -67 -56 0 -83 18 -130 87 -56 84 -120 146 -176 171 -50 22
-54 22 -103 8 -43 -13 -53 -21 -66 -52 -25 -60 -12 -123 52 -257 86 -183 165
-334 204 -395 43 -67 44 -67 126 -205 36 -60 65 -114 65 -120 0 -5 39 -89 86
-185 47 -96 110 -233 139 -305 29 -71 69 -165 89 -208 48 -104 65 -184 67
-314 3 -150 -18 -211 -126 -383 -23 -36 -50 -78 -60 -95 -63 -103 -214 -238
-318 -284 -199 -89 -353 -131 -561 -150 -251 -24 -639 63 -761 171 -52 45
-124 152 -165 245 -35 77 -38 93 -39 181 -1 92 14 209 39 304 22 81 39 233 35
323 -4 134 -15 164 -80 220 -96 81 -108 144 -40 198 45 36 74 46 164 58 60 7
95 6 161 -7 106 -19 172 -52 231 -113 88 -92 94 -197 28 -550 -10 -56 -19
-126 -19 -153 0 -54 23 -156 45 -198 26 -50 101 -112 191 -157 117 -58 206
-67 329 -34 95 26 155 64 211 135 57 71 75 124 81 239 6 107 -7 184 -58 337
-15 47 -33 105 -39 130 -7 25 -20 63 -29 85 -10 22 -28 72 -41 110 -22 65 -61
153 -148 335 -43 90 -80 141 -254 343 -76 89 -193 243 -231 304 -62 99 -83
223 -50 305 42 106 190 302 278 369 53 40 128 75 195 90 60 14 358 3 430 -16z
m1668 -182 c15 -10 53 -41 84 -69 32 -29 83 -72 115 -97 l58 -44 165 -5 c101
-3 175 -10 191 -18 57 -27 62 -91 20 -260 l-29 -115 46 -78 c56 -96 68 -175
34 -217 -27 -34 -83 -32 -151 5 -28 16 -53 26 -56 23 -4 -4 -21 -61 -81 -277
-17 -59 -60 -111 -92 -111 -11 0 -29 8 -40 18 -25 21 -65 141 -92 277 -11 55
-34 158 -52 228 l-31 128 -48 25 c-27 13 -110 49 -186 80 -163 66 -207 89
-223 119 -32 60 11 91 154 110 59 7 110 16 112 18 3 2 -2 36 -11 76 -21 101
-20 156 5 181 25 25 71 26 108 3z m1665 -1219 c72 -12 140 -92 139 -165 -1
-47 -11 -67 -80 -153 l-56 -70 21 -75 c12 -42 30 -107 41 -146 11 -38 23 -88
26 -110 3 -22 8 -51 11 -65 3 -14 7 -41 9 -60 3 -19 12 -64 22 -100 35 -137
77 -409 75 -500 0 -8 4 -35 9 -60 5 -25 14 -85 20 -135 6 -49 15 -112 20 -140
5 -27 19 -151 30 -275 12 -124 23 -241 26 -260 13 -95 21 -259 24 -485 6 -521
5 -672 -7 -760 -7 -49 -17 -122 -22 -160 -6 -39 -13 -111 -16 -160 -3 -50 -8
-98 -11 -108 -3 -10 -12 -58 -19 -105 -8 -48 -23 -139 -34 -202 -11 -63 -30
-176 -42 -250 -30 -190 -51 -276 -125 -499 -35 -107 -64 -200 -64 -206 0 -23
-82 -278 -135 -422 -61 -165 -94 -242 -175 -404 l-77 -156 22 -21 c12 -12 28
-42 35 -67 18 -64 -8 -126 -76 -177 -51 -39 -63 -44 -176 -74 -64 -16 -68 -19
-68 -46 0 -55 -42 -183 -93 -282 -43 -86 -64 -114 -141 -189 -202 -195 -423
-303 -674 -327 -67 -6 -130 -9 -140 -6 -9 3 -40 7 -68 10 -28 3 -77 12 -109
21 -33 8 -62 12 -67 7 -4 -4 -16 -34 -27 -67 -29 -86 -69 -195 -86 -230 -7
-16 -23 -55 -35 -86 -30 -81 -46 -99 -82 -99 -31 0 -142 51 -213 99 -22 15
-47 30 -56 33 -31 12 -228 159 -249 186 -31 39 -31 40 76 325 8 21 28 65 44
98 35 68 33 75 -38 129 -89 68 -163 187 -197 315 -21 81 -14 336 14 499 l20
119 -25 19 c-25 20 -80 101 -102 151 -19 44 -15 137 8 174 24 40 85 81 153
104 51 17 53 19 97 106 166 328 282 626 364 938 15 55 35 129 46 165 29 105
58 218 80 320 12 52 26 116 31 142 12 53 13 60 29 178 6 47 15 114 20 150 34
250 57 765 52 1180 -2 202 -9 379 -17 414 -3 12 -9 84 -15 161 -12 164 -42
367 -72 480 -11 44 -25 98 -30 120 -5 22 -13 49 -18 60 -5 11 -20 58 -34 105
-47 152 -63 183 -103 205 -78 42 -107 159 -63 248 21 42 123 137 147 137 4 0
31 15 58 33 43 29 224 117 240 117 3 0 38 15 78 34 40 18 93 41 117 49 25 9
77 28 115 43 278 105 522 157 930 199 83 8 200 20 260 26 61 6 141 13 180 16
38 2 70 5 72 7 3 3 114 -10 176 -20z m-9458 -1619 c60 -144 69 -163 174 -340
51 -88 102 -173 111 -190 49 -85 447 -725 548 -880 36 -55 76 -118 90 -140 44
-71 214 -307 302 -420 47 -60 96 -125 109 -142 25 -36 22 -68 -8 -78 -21 -6
-137 40 -238 95 -81 45 -83 46 -83 26 0 -8 40 -52 89 -98 160 -149 211 -235
244 -408 41 -213 23 -364 -59 -487 -18 -29 -34 -56 -34 -61 0 -16 -65 -71
-102 -86 -144 -61 -613 -84 -833 -42 -157 30 -243 53 -270 70 -32 21 -55 72
-55 124 0 21 -7 83 -15 138 -59 379 -68 728 -29 1106 l6 56 -85 90 c-98 103
-108 125 -78 155 l20 21 72 -37 c39 -20 76 -34 82 -30 9 5 2 843 -8 928 -2 17
-9 143 -14 280 -6 138 -16 290 -22 338 -12 100 -8 120 23 115 18 -2 30 -23 63
-103z m6562 -195 c119 -36 144 -55 260 -195 108 -130 156 -228 188 -383 16
-81 24 -318 12 -377 -11 -53 -46 -179 -61 -222 -46 -126 -161 -300 -272 -408
l-82 -80 36 -40 c60 -69 108 -151 150 -257 62 -157 72 -206 78 -383 6 -142 4
-170 -15 -250 -57 -236 -174 -425 -351 -565 -144 -114 -274 -199 -367 -239
-143 -62 -173 -43 -85 54 80 87 192 299 251 472 67 198 94 507 56 641 -10 34
-21 65 -26 67 -8 6 -62 -87 -122 -210 -62 -126 -102 -246 -150 -452 -40 -169
-62 -236 -112 -348 -7 -16 -16 -41 -20 -55 -27 -92 -89 -172 -150 -195 -59
-23 -101 -14 -149 33 -58 55 -79 111 -72 186 3 33 8 86 11 116 4 48 13 138 31
330 14 150 28 240 64 405 22 99 42 196 45 215 3 19 19 82 36 140 16 58 50 204
76 325 82 392 100 477 141 650 22 94 45 213 52 265 29 240 78 442 127 522 13
21 23 40 23 44 0 12 88 129 123 162 67 64 138 73 274 32z m-2962 -300 c14 -22
25 -42 25 -44 0 -10 105 -175 147 -231 24 -33 115 -170 202 -305 86 -135 192
-299 235 -365 92 -141 107 -165 121 -186 49 -79 130 -181 248 -311 37 -42 67
-80 67 -85 0 -5 9 -18 20 -28 53 -48 4 -69 -145 -61 -60 3 -164 8 -230 11
l-120 6 65 -27 c72 -30 157 -74 208 -107 45 -30 153 -194 193 -292 67 -167 85
-280 63 -400 -15 -85 -52 -213 -65 -231 -5 -6 -7 -13 -4 -16 8 -7 -32 -116
-59 -162 -13 -23 -35 -53 -49 -66 -50 -50 -203 -112 -328 -134 -46 -8 -108
-20 -138 -27 -103 -22 -246 10 -324 72 l-39 31 -14 -21 c-51 -72 -198 -231
-215 -231 -28 0 -52 44 -46 82 3 18 24 105 47 193 23 88 50 205 61 260 10 55
21 106 24 113 21 55 79 358 87 452 20 246 20 324 -3 416 -28 108 -39 116 -194
123 -97 5 -110 8 -113 25 -2 10 5 28 16 40 53 55 110 124 129 156 68 113 101
317 110 680 5 206 3 240 -21 407 -14 101 -25 186 -24 190 1 5 -4 25 -11 46
-16 47 -9 67 24 67 18 0 31 -11 50 -40z m-1723 3 c10 -9 18 -26 18 -38 0 -12
7 -41 14 -64 8 -22 22 -71 32 -108 25 -104 47 -168 98 -284 25 -59 46 -109 46
-112 0 -4 21 -55 46 -114 56 -131 115 -314 149 -466 31 -141 45 -271 60 -547
3 -52 7 -120 10 -150 3 -30 7 -100 10 -155 3 -55 8 -107 10 -115 2 -8 7 -44
10 -80 12 -130 36 -345 40 -360 2 -8 7 -60 10 -115 3 -55 8 -143 11 -195 7
-112 -2 -130 -59 -114 -29 9 -36 19 -78 119 -51 124 -48 118 -117 275 -28 63
-64 149 -81 190 -67 169 -152 317 -199 348 -24 16 -26 15 -41 -7 -8 -13 -16
-29 -17 -35 -37 -206 -54 -282 -95 -436 -75 -278 -109 -358 -171 -393 -71 -41
-202 -41 -282 0 -43 22 -96 63 -96 75 0 5 15 46 34 91 19 45 51 138 71 207 20
69 47 159 60 200 13 41 27 93 30 115 4 22 19 108 35 190 64 331 73 383 82 455
5 41 25 136 45 210 58 224 106 443 122 555 17 124 39 298 39 315 0 31 13 129
32 230 11 58 27 150 36 205 9 55 21 106 26 113 14 17 38 15 60 -5z m1257 -242
c110 -34 207 -140 259 -283 24 -66 27 -86 26 -198 -1 -92 -7 -144 -22 -195
-28 -99 -93 -274 -143 -385 -40 -89 -43 -101 -41 -177 2 -121 17 -148 160
-283 98 -92 126 -124 146 -170 43 -101 43 -263 0 -434 -23 -90 -64 -331 -64
-379 0 -60 -25 -155 -47 -186 -45 -60 -184 -98 -255 -68 -63 26 -72 59 -59
202 15 153 15 481 1 571 -13 85 -62 190 -93 200 -24 9 -58 6 -69 -5 -12 -11
-39 -179 -64 -391 -2 -19 -6 -138 -9 -265 l-6 -229 -26 -29 c-38 -39 -232
-147 -265 -147 -32 0 -68 34 -67 64 0 12 -9 86 -20 166 -16 120 -20 194 -18
435 0 160 0 351 -1 425 -1 74 1 187 5 250 8 118 8 165 3 660 -2 195 1 305 9
350 18 97 70 259 96 299 25 41 140 145 176 160 52 22 228 56 301 60 14 0 54
-7 87 -18z m2687 -2 c8 -6 14 -17 14 -23 0 -28 -102 -99 -270 -189 -41 -22
-106 -59 -145 -82 -61 -36 -69 -44 -65 -66 13 -61 -6 -552 -33 -868 -2 -21 7
-28 66 -52 156 -64 288 -133 285 -147 -3 -14 -100 -48 -269 -96 l-57 -16 -7
-47 c-4 -27 -9 -57 -11 -68 -1 -12 -9 -70 -18 -130 -8 -61 -20 -159 -26 -220
-17 -162 -36 -247 -75 -344 -56 -138 -56 -139 6 -208 30 -32 80 -78 111 -101
81 -61 206 -179 213 -203 13 -40 -3 -66 -50 -85 -40 -15 -70 -16 -238 -11
-215 6 -272 17 -384 73 -90 45 -147 101 -163 160 -14 49 -9 81 35 239 13 44
28 112 34 150 6 39 17 106 25 150 8 44 18 157 21 250 8 190 -4 300 -52 485
l-27 105 35 60 c33 56 73 153 98 235 24 80 43 338 44 583 l0 137 -56 40 c-123
88 -134 195 -27 250 25 13 84 26 157 35 65 8 132 16 148 19 65 10 667 -3 681
-15z m-2347 -1448 c44 -26 56 -47 75 -126 7 -30 7 -30 -27 10 -19 23 -53 53
-74 68 -21 14 -47 41 -57 58 l-19 32 29 -7 c16 -4 49 -20 73 -35z m1200 -93
c6 -34 9 -64 7 -66 -3 -2 -14 13 -25 35 -12 21 -27 46 -34 56 -10 14 -9 19 3
27 29 19 38 9 49 -52z m921 -35 c0 -22 -24 -157 -49 -283 -48 -239 -80 -468
-89 -645 l-7 -120 -72 70 -72 70 34 155 c36 167 92 507 102 627 l6 74 66 34
c77 40 81 41 81 18z m-4108 -1598 c251 -16 410 -127 411 -289 1 -52 -28 -132
-57 -161 -38 -39 -94 -40 -285 -8 -123 20 -274 15 -316 -12 -92 -57 -101 -87
-60 -182 22 -49 55 -87 214 -243 207 -204 235 -236 309 -360 51 -87 62 -116
108 -300 53 -215 56 -234 56 -360 -1 -178 -37 -321 -104 -410 -10 -14 -26 -36
-36 -49 -68 -97 -224 -212 -398 -293 -95 -44 -416 -98 -583 -98 -89 0 -266 31
-285 50 -5 5 -16 10 -24 10 -20 0 -128 79 -186 136 -66 66 -91 106 -121 193
-21 64 -23 81 -16 135 12 82 23 108 61 139 28 24 40 27 104 27 90 0 159 -20
256 -72 l75 -41 210 0 c189 -1 218 2 293 22 98 28 182 87 237 168 46 69 58
123 53 240 -5 107 -23 169 -71 251 -18 30 -37 63 -44 75 -6 11 -33 44 -60 72
-324 343 -413 453 -471 578 -84 181 -115 312 -93 389 18 63 87 175 145 237 58
61 147 109 251 137 66 17 274 35 322 27 12 -1 59 -5 105 -8z m3456 -30 c143
-22 220 -48 289 -99 78 -58 110 -94 183 -204 101 -154 156 -267 186 -382 25
-96 27 -122 28 -300 1 -190 0 -198 -32 -313 -37 -135 -94 -284 -130 -342 -39
-63 -192 -206 -261 -245 -107 -60 -103 -53 -112 -171 -4 -57 -10 -129 -13
-159 -3 -30 -8 -91 -11 -135 -10 -138 -35 -298 -50 -321 -49 -76 -154 -108
-305 -94 -101 9 -153 28 -172 63 -6 12 -13 74 -15 137 -2 63 -10 176 -17 250
-8 74 -14 232 -15 350 0 118 -3 238 -6 265 -3 28 -10 95 -15 150 -6 55 -15
163 -20 239 -11 157 -13 176 -41 300 -26 116 -49 283 -49 366 0 36 -7 108 -16
160 -9 52 -17 132 -17 178 -2 82 -1 84 29 112 17 15 33 32 35 38 6 16 89 82
130 103 62 31 200 68 260 68 30 1 101 -6 157 -14z m-2527 -105 c15 -7 32 -22
37 -34 24 -47 51 -160 62 -253 6 -54 16 -116 22 -138 15 -56 21 -533 9 -700
-6 -77 -15 -210 -21 -295 -6 -85 -12 -178 -15 -207 l-5 -51 38 -6 c20 -3 58
-8 83 -12 l46 -6 8 69 c3 37 15 113 25 168 11 55 22 116 25 135 17 104 78 386
99 460 62 222 245 642 309 710 9 11 17 22 17 25 0 16 85 118 101 122 11 3 19
9 19 14 0 5 83 9 185 9 170 0 185 -1 194 -19 8 -15 2 -31 -29 -80 -22 -34 -49
-80 -61 -104 -12 -23 -53 -91 -92 -152 -106 -167 -291 -509 -326 -605 -89
-240 -118 -367 -146 -640 -19 -185 -19 -177 10 -184 24 -6 25 -10 25 -75 0
-38 5 -104 11 -147 11 -84 7 -95 -37 -86 -16 3 -26 -1 -30 -12 -11 -28 16
-283 47 -459 25 -140 65 -295 94 -368 8 -22 -20 -49 -50 -49 -51 0 -104 105
-196 384 -61 185 -119 416 -119 475 0 11 -5 23 -12 27 -7 4 -82 11 -167 16
l-156 7 -25 -28 c-88 -98 -188 -222 -262 -321 -96 -130 -268 -387 -268 -401 0
-15 -80 -11 -86 4 -3 8 8 47 24 88 16 41 48 139 71 219 39 134 63 209 112 349
28 80 27 84 -23 76 -37 -7 -40 -6 -33 11 4 11 11 46 16 79 4 33 13 80 19 105
6 25 13 65 16 90 10 89 28 110 97 110 32 0 31 -1 45 110 6 47 13 101 16 120
11 84 17 181 26 428 10 281 2 500 -25 632 -38 193 -48 239 -61 287 -21 74 -6
95 81 117 37 9 230 -1 256 -14z m1622 -171 c27 -14 87 -70 87 -81 0 -5 17 -32
38 -61 22 -29 46 -66 55 -83 29 -56 57 -185 77 -357 11 -94 27 -181 35 -195
24 -43 102 -397 115 -522 18 -172 9 -551 -14 -610 -10 -25 -29 -83 -43 -130
-73 -245 -218 -495 -333 -575 -124 -86 -304 -92 -470 -17 -70 32 -155 112
-241 226 -24 32 -51 68 -60 80 -53 68 -148 301 -169 414 -33 186 -41 503 -16
692 26 199 120 496 213 675 102 196 289 380 477 473 183 89 203 95 249 71z
m-1993 -126 l32 -112 1 -403 c1 -222 -2 -484 -7 -583 l-9 -180 -53 -57 -54
-57 0 74 c0 165 -84 407 -203 586 -73 110 -233 294 -341 393 -51 46 -105 103
-121 125 -26 39 -27 42 -11 60 9 10 35 26 57 36 37 17 47 18 147 4 59 -8 150
-14 202 -14 88 0 101 3 163 33 81 40 141 109 152 172 4 23 8 40 10 38 2 -2 17
-54 35 -115z m4013 57 c9 -11 20 -37 23 -58 7 -45 37 -145 69 -227 13 -33 37
-98 53 -145 51 -145 135 -293 239 -420 29 -36 69 -85 88 -110 20 -25 52 -66
73 -92 20 -26 45 -50 55 -53 25 -9 23 -55 -2 -55 -33 0 -314 266 -444 421 -48
58 -137 203 -182 299 -51 107 -95 264 -95 337 0 96 75 159 123 103z m-209
-676 c9 -3 60 -56 114 -118 53 -61 109 -122 124 -134 16 -13 28 -27 28 -32 0
-4 37 -45 82 -91 l81 -84 64 -2 c35 -2 73 1 83 7 24 13 47 4 55 -21 4 -13 16
-19 35 -19 42 0 59 -9 76 -41 8 -16 21 -29 28 -29 16 0 26 -21 26 -56 0 -14 7
-39 16 -56 13 -25 14 -36 5 -50 -16 -25 -14 -73 4 -88 8 -7 15 -23 15 -35 0
-12 11 -38 24 -57 26 -38 29 -89 8 -110 -11 -11 -22 -3 -63 40 -55 57 -59 59
-59 37 0 -17 -35 -38 -53 -32 -7 2 -19 -10 -27 -27 -13 -25 -21 -31 -44 -29
-16 1 -39 12 -52 24 l-22 21 -32 -23 c-37 -28 -65 -17 -65 26 1 25 -1 26 -30
20 -56 -14 -79 -11 -83 8 -2 10 4 27 13 37 19 21 12 42 -10 33 -36 -13 -61 47
-27 66 23 13 6 31 -39 40 -43 9 -61 37 -35 56 18 13 18 15 -3 41 -41 52 -16
104 51 104 36 0 50 12 28 25 -5 3 -10 15 -10 26 0 23 -1 24 -86 100 -97 87
-200 213 -239 293 -37 78 -42 105 -23 124 14 14 20 14 42 6z"/>
<path d="M2747 10499 c-36 -32 -127 -186 -127 -215 0 -31 29 -49 143 -90 101
-37 164 -49 196 -39 50 15 131 173 117 228 -9 37 -27 35 -20 -2 4 -20 -2 -47
-20 -86 -33 -72 -76 -94 -146 -76 -60 16 -88 36 -96 67 -13 49 51 138 120 169
l49 21 -38 18 c-21 10 -63 20 -94 23 -50 5 -60 2 -84 -18z m59 -93 c-18 -24
-38 -65 -45 -90 -10 -42 -13 -45 -31 -36 -29 16 -25 40 21 108 31 47 48 62 65
62 24 0 23 -1 -10 -44z"/>
<path d="M2354 10111 c50 -53 174 -132 260 -166 114 -44 298 -79 384 -72 77 6
175 34 167 47 -10 16 -114 50 -188 61 -86 13 -181 36 -222 54 -89 39 -297 98
-360 103 l-70 4 29 -31z m349 -116 c56 -14 140 -36 187 -48 74 -21 80 -24 54
-30 -43 -8 -145 3 -170 19 -11 8 -49 23 -85 35 -69 23 -122 48 -101 49 7 0 58
-11 115 -25z"/>
<path d="M2070 10076 c-144 -50 -267 -125 -366 -222 -54 -53 -134 -160 -134
-178 0 -21 626 -232 715 -241 81 -8 222 -16 295 -16 41 0 147 -7 235 -14 88
-8 228 -19 310 -25 83 -6 192 -17 242 -25 51 -8 94 -15 96 -15 3 0 3 15 -7
180 -4 74 -33 198 -65 282 l-10 26 -68 -27 c-165 -67 -341 -93 -474 -71 -102
17 -208 57 -358 136 -136 71 -194 110 -282 185 -31 27 -58 49 -60 48 -2 0 -33
-10 -69 -23z m99 -95 c20 -15 52 -36 71 -46 19 -10 49 -28 65 -40 41 -30 206
-117 285 -150 90 -38 258 -82 363 -95 102 -12 226 0 320 32 33 11 63 16 67 12
10 -11 36 -136 45 -223 l7 -64 -63 6 c-35 3 -149 12 -254 21 -104 9 -217 19
-250 22 l-61 5 0 34 c0 40 -18 63 -61 82 -83 34 -173 -6 -173 -77 0 -18 -5
-21 -32 -18 -30 3 -33 6 -35 37 -3 76 -51 106 -247 156 -108 28 -414 84 -460
85 -44 0 316 249 363 250 7 0 30 -13 50 -29z m-314 -296 c365 -76 555 -121
568 -134 5 -5 7 -17 3 -27 -5 -13 -13 -15 -39 -9 -17 3 -57 10 -87 14 -30 5
-113 25 -185 46 -71 20 -143 39 -160 42 -124 18 -168 26 -227 45 -62 19 -79
33 -61 51 9 10 0 11 188 -28z m869 -155 c8 -8 7 -15 -1 -28 -9 -14 -23 -16
-79 -14 -38 2 -73 7 -77 11 -11 11 2 39 21 45 27 8 124 -2 136 -14z"/>
<path d="M1316 9533 c-15 -4 -11 -10 24 -30 23 -14 66 -34 94 -45 92 -34 436
-118 696 -168 140 -28 293 -59 340 -70 47 -10 110 -22 140 -25 30 -3 62 -8 70
-10 38 -11 301 -35 445 -40 223 -9 346 18 268 58 -39 20 -99 26 -408 37 -376
14 -498 25 -665 60 -80 17 -156 33 -169 36 -100 21 -178 42 -321 89 -270 89
-449 127 -514 108z"/>
<path d="M2925 8935 c-60 -7 -159 -18 -220 -24 -141 -15 -431 -59 -470 -71
-16 -5 -84 -24 -150 -41 -389 -103 -989 -351 -1161 -480 -129 -97 -180 -152
-218 -237 -48 -109 -139 -384 -162 -492 -3 -14 -14 -63 -25 -110 -68 -282
-114 -607 -107 -759 l3 -74 150 152 c220 225 472 472 535 526 177 152 674 440
920 534 192 73 509 154 690 175 108 13 107 13 129 69 10 29 45 106 76 172 31
66 68 146 81 178 32 75 195 405 222 450 12 18 19 37 15 40 -10 11 -186 6 -308
-8z m151 -80 c4 -8 -6 -31 -20 -49 -33 -44 -138 -263 -166 -347 -26 -77 -35
-88 -55 -68 -14 13 -13 21 5 75 11 32 32 84 46 114 82 173 101 209 126 248 30
43 54 54 64 27z m-126 -39 c0 -3 -14 -26 -32 -52 -39 -59 -104 -208 -124 -286
-18 -70 -7 -105 43 -128 33 -15 48 -39 16 -24 -37 16 -68 6 -100 -32 -55 -63
-54 -146 2 -160 44 -11 30 -34 -21 -34 -62 0 -238 -26 -348 -52 -195 -45 -480
-156 -731 -283 -379 -193 -485 -274 -910 -690 l-240 -235 -3 78 c-5 122 15
262 58 413 22 76 53 193 70 258 74 294 161 507 228 557 20 16 38 32 40 36 6
13 123 93 192 131 64 34 110 54 475 203 99 40 224 91 277 113 109 46 336 111
478 136 139 24 630 64 630 51z m-124 -560 c4 -35 -31 -106 -51 -106 -22 0 -22
26 -2 98 9 33 16 42 31 40 13 -2 20 -12 22 -32z"/>
<path d="M2525 7056 c-200 -74 -583 -301 -840 -497 -213 -162 -517 -524 -822
-979 -139 -208 -160 -243 -251 -415 -99 -187 -127 -251 -194 -440 -52 -149
-56 -178 -43 -333 24 -284 232 -1042 372 -1357 47 -105 63 -117 63 -49 0 126
127 580 224 804 115 265 319 607 469 787 241 288 683 624 970 739 68 26 69 27
63 58 -17 82 -18 448 -2 651 8 115 20 359 26 540 10 303 15 370 35 478 8 43
10 42 -70 13z m28 -113 c3 -14 1 -34 -3 -42 -26 -51 -62 -204 -74 -316 -30
-256 -40 -362 -43 -462 -4 -105 -13 -124 -43 -88 -16 20 -6 407 16 574 15 122
48 294 64 335 19 52 73 52 83 -1z m-146 -60 c-28 -95 -61 -227 -73 -295 -21
-113 -30 -424 -15 -493 16 -69 43 -105 82 -105 29 0 29 -1 29 -58 0 -51 -3
-60 -29 -83 -42 -37 -55 -94 -47 -208 7 -102 24 -147 61 -161 21 -8 25 -16 25
-47 l0 -38 -107 -55 c-121 -62 -300 -167 -394 -231 -315 -213 -715 -710 -951
-1184 -69 -137 -170 -437 -192 -570 -10 -55 -19 -101 -20 -103 -8 -7 -61 164
-147 478 -91 331 -175 758 -163 828 27 155 100 343 226 577 118 220 218 380
337 535 53 69 116 152 140 185 285 386 580 670 887 853 27 16 87 53 134 82 79
49 193 108 214 109 4 1 6 -7 3 -16z m43 -1086 c0 -19 -3 -82 -7 -141 -5 -88
-9 -106 -21 -104 -31 6 -36 76 -16 236 4 33 9 42 25 42 15 0 19 -7 19 -33z"/>
<path d="M2583 4319 c-10 -12 -32 -36 -49 -53 -164 -168 -360 -485 -593 -956
-177 -356 -221 -483 -283 -815 -20 -109 -22 -148 -21 -435 1 -173 5 -335 10
-360 l8 -45 100 -34 c116 -40 248 -51 362 -31 81 14 342 99 383 125 8 5 47 24
85 43 39 18 109 56 157 84 l86 51 0 56 c1 152 53 365 127 518 60 126 93 176
175 272 l57 67 -58 109 c-124 230 -199 388 -273 572 -42 105 -76 194 -76 199
0 4 -6 15 -13 23 -38 44 -122 375 -143 559 -3 34 -10 65 -15 68 -5 3 -16 -5
-26 -17z m19 -352 c9 -38 23 -76 31 -85 8 -9 18 -37 22 -62 19 -126 81 -323
133 -427 29 -57 29 -59 12 -81 -28 -34 -46 -19 -89 72 -70 146 -132 337 -151
466 -7 41 -16 92 -21 113 -13 50 -4 79 24 75 18 -2 25 -15 39 -71z m-73 -277
c66 -244 123 -372 196 -440 22 -21 36 -25 87 -25 40 0 63 -4 65 -12 3 -7 -2
-13 -10 -13 -21 0 -57 -47 -57 -74 0 -26 35 -85 63 -108 25 -20 77 -24 94 -7
9 9 21 -6 47 -57 19 -38 43 -81 52 -96 l18 -26 -85 -90 c-91 -97 -157 -201
-194 -309 -36 -104 -77 -335 -73 -420 3 -84 10 -76 -125 -150 -96 -53 -278
-123 -412 -158 -105 -27 -192 -31 -310 -15 -143 20 -131 13 -146 83 -10 42
-14 128 -14 267 1 325 32 503 150 845 101 295 109 314 194 445 37 58 87 139
111 180 24 41 69 118 100 170 32 52 76 127 99 167 22 39 53 86 68 104 l28 33
6 -70 c4 -38 25 -139 48 -224z m410 -564 c25 -40 27 -74 5 -83 -22 -8 -44 6
-72 47 -14 22 -20 41 -16 54 14 46 48 39 83 -18z"/>
<path d="M3572 2428 c-7 -7 -12 -19 -12 -27 0 -23 -54 -135 -87 -179 -14 -20
-52 -64 -83 -97 -31 -33 -74 -81 -96 -106 -42 -50 -164 -153 -284 -240 -79
-58 -273 -179 -286 -179 -4 0 -39 -16 -78 -37 -39 -20 -84 -40 -101 -44 -16
-4 -76 -23 -132 -43 -119 -42 -305 -76 -414 -76 -117 0 -331 43 -447 91 -53
21 -82 -2 -82 -65 0 -35 5 -46 29 -63 58 -44 103 -54 303 -71 184 -15 207 -15
325 1 472 62 881 258 1198 574 183 182 325 396 325 490 0 60 -47 102 -78 71z"/>
<path d="M7631 9857 c-47 -62 -114 -200 -130 -272 -22 -94 -30 -246 -19 -360
6 -60 14 -114 19 -119 13 -14 111 -10 171 8 61 18 150 79 179 123 31 46 42
119 31 203 -8 63 -6 88 10 154 30 117 23 160 -37 229 -53 62 -96 87 -148 87
-30 0 -40 -7 -76 -53z m124 -82 c77 -63 91 -125 55 -250 -11 -38 -20 -93 -20
-121 0 -49 -2 -53 -53 -102 -50 -47 -102 -72 -149 -72 -15 0 -18 9 -18 55 0
29 4 76 9 102 6 26 19 100 31 163 12 63 26 131 32 150 12 38 54 110 65 110 3
0 25 -16 48 -35z"/>
<path d="M6294 9520 c-99 -101 -218 -255 -263 -339 -52 -99 -101 -251 -146
-463 -40 -182 -45 -221 -45 -330 0 -145 31 -347 65 -423 7 -16 17 -42 20 -57
4 -15 24 -47 44 -70 l38 -42 34 22 c157 97 295 440 363 902 8 52 20 136 26
185 7 50 19 117 27 150 16 62 31 142 59 300 8 50 14 119 12 154 -5 79 -26 101
-98 101 -48 0 -50 -1 -136 -90z m116 -89 c0 -26 -14 -91 -66 -306 -48 -201
-60 -266 -69 -375 -10 -112 -51 -331 -85 -452 -28 -102 -123 -297 -148 -306
-23 -7 -66 209 -82 408 -15 184 -2 280 67 499 44 143 89 234 160 329 52 70
199 222 216 222 4 0 7 -9 7 -19z"/>
<path d="M4984 9651 c-38 -23 -120 -186 -170 -339 -30 -92 -34 -116 -35 -214
0 -96 2 -115 19 -137 29 -39 113 -35 206 9 153 73 245 223 248 404 1 84 -1 97
-28 145 -31 58 -90 112 -147 136 -47 19 -55 19 -93 -4z m134 -171 c19 -46 22
-68 18 -135 -10 -186 -107 -315 -238 -315 -42 0 -46 2 -51 28 -16 80 16 217
80 347 60 120 76 137 128 133 38 -3 41 -5 63 -58z"/>
<path d="M11990 8560 c-162 -12 -302 -42 -530 -114 -25 -8 -85 -26 -135 -41
-98 -29 -309 -99 -346 -114 -13 -6 -69 -26 -124 -46 -146 -54 -193 -74 -257
-113 -60 -36 -62 -39 -52 -66 8 -20 71 -22 93 -3 22 19 236 108 346 145 181
61 457 141 540 156 11 2 65 13 120 25 105 21 193 37 260 45 59 8 346 22 597
31 135 4 198 16 218 40 17 21 4 34 -46 46 -53 13 -530 19 -684 9z"/>
<path d="M12090 8307 c-180 -14 -244 -23 -432 -62 -208 -42 -249 -58 -297
-118 -131 -164 -199 -242 -282 -324 -104 -101 -291 -259 -327 -276 -25 -12
-26 -32 -2 -147 5 -25 18 -101 30 -170 11 -69 29 -174 40 -235 10 -60 22 -139
26 -175 4 -36 8 -74 10 -85 1 -11 5 -82 10 -157 4 -76 11 -138 15 -138 24 0
289 184 439 304 119 96 398 381 494 506 238 307 523 798 585 1005 11 38 19 70
18 71 -7 7 -245 8 -327 1z m210 -91 c0 -46 -193 -400 -319 -586 -208 -307
-274 -391 -455 -584 -155 -165 -207 -209 -422 -362 l-149 -105 -2 53 c-2 29
-8 97 -14 151 -8 81 -8 102 4 120 23 36 27 83 12 139 -8 33 -13 100 -12 178 1
113 -2 133 -27 205 l-27 80 23 17 c76 59 165 139 207 187 123 142 227 272 266
332 l43 66 64 7 c34 4 104 15 153 26 50 10 147 30 216 44 70 14 183 30 250 34
189 14 189 14 189 -2z m-1447 -731 c10 -33 19 -76 21 -95 2 -19 9 -77 16 -129
12 -97 7 -120 -24 -108 -16 7 -18 11 -36 127 -7 41 -18 100 -26 130 -24 104
-20 145 14 138 10 -2 23 -26 35 -63z m70 -448 c11 -33 3 -85 -17 -112 -12 -16
-16 -17 -29 -6 -12 9 -15 26 -11 69 3 31 7 63 10 70 7 22 37 9 47 -21z"/>
<path d="M12694 7078 c-42 -81 -280 -415 -412 -576 -239 -294 -529 -564 -765
-716 -135 -87 -378 -209 -522 -262 -71 -27 -131 -49 -133 -50 -1 -1 -5 -77 -7
-170 -3 -93 -9 -207 -15 -254 -5 -47 -12 -110 -14 -140 -8 -88 -35 -291 -46
-340 -6 -25 -12 -58 -14 -75 -2 -16 -7 -45 -11 -62 -6 -25 -4 -33 6 -33 23 0
100 26 164 55 56 25 155 65 305 122 284 107 745 403 978 627 92 88 238 276
381 489 51 75 99 137 107 137 7 0 26 24 40 52 26 52 27 55 20 188 -10 189 -14
341 -22 675 -8 374 -7 365 -16 365 -4 0 -15 -15 -24 -32z m-41 -778 c-2 -168
-6 -311 -8 -318 -12 -34 -213 -335 -313 -470 -131 -175 -244 -286 -428 -419
-147 -107 -425 -282 -519 -328 -151 -72 -443 -191 -451 -183 -3 3 2 34 10 69
25 104 64 327 76 430 9 80 8 308 -2 349 -2 6 44 28 102 49 271 97 510 244 755
464 200 179 592 631 731 841 l39 59 5 -119 c3 -65 4 -256 3 -424z m-1667 -855
c3 -14 3 -53 0 -88 -4 -34 -9 -87 -11 -117 -10 -106 -36 -305 -46 -342 -11
-42 -19 -50 -37 -39 -10 6 -11 25 -2 87 6 43 15 129 20 189 11 130 30 305 36
323 6 21 33 13 40 -13z m-84 -727 c-2 -45 -22 -75 -42 -63 -16 10 -7 104 11
116 21 13 32 -6 31 -53z"/>
<path d="M12665 4409 c-219 -220 -503 -450 -731 -591 -369 -228 -836 -381
-1334 -437 -199 -23 -235 -29 -227 -38 6 -5 -74 -162 -123 -243 -36 -58 -44
-85 -28 -97 11 -8 204 -96 303 -138 68 -29 280 -100 465 -155 41 -12 93 -28
115 -35 22 -7 63 -18 91 -25 l51 -13 131 57 c73 31 135 56 138 56 10 0 278
136 399 202 193 106 267 150 416 249 l146 97 28 69 c31 76 102 289 115 343 5
19 19 71 30 115 27 101 33 125 80 345 5 25 12 65 15 90 6 48 19 122 37 208 6
28 9 54 7 57 -3 2 -59 -50 -124 -116z m-6 -161 c-5 -29 -28 -123 -53 -208 -24
-85 -53 -198 -65 -250 -26 -120 -49 -198 -98 -327 -37 -99 -40 -103 -98 -146
-171 -124 -464 -296 -591 -346 -28 -11 -151 -68 -272 -126 l-221 -107 -63 7
c-97 10 -176 30 -315 80 -94 34 -377 158 -500 219 -1 1 20 33 47 73 26 39 57
96 68 125 l20 53 118 6 c286 15 500 72 922 245 464 190 614 289 1027 678 44
41 80 75 81 76 1 0 -3 -24 -7 -52z m-2215 -963 c-1 -17 -18 -65 -38 -108 -31
-68 -39 -78 -58 -75 -32 4 -27 35 23 136 30 60 46 82 58 80 11 -3 16 -13 15
-33z"/>
<path d="M10005 2930 c-13 -21 33 -76 100 -121 100 -67 231 -131 375 -184 69
-25 154 -57 190 -71 36 -15 85 -32 110 -39 25 -8 83 -27 129 -44 45 -16 124
-42 175 -56 86 -25 122 -33 241 -55 28 -5 86 -16 130 -25 62 -12 474 -53 556
-55 8 0 24 6 34 14 16 12 17 16 6 30 -7 9 -32 21 -55 27 -22 6 -52 15 -66 20
-32 10 -103 19 -205 24 -280 15 -531 62 -765 146 -30 11 -113 40 -185 64 -250
85 -300 103 -360 130 -132 59 -214 101 -297 152 -89 55 -102 60 -113 43z"/>
<path d="M10096 2579 c-23 -125 -29 -179 -29 -269 0 -58 5 -117 11 -131 11
-27 11 -27 126 -27 79 -1 133 -7 169 -18 104 -33 194 -67 287 -109 52 -24 142
-64 200 -90 58 -25 141 -70 185 -99 127 -84 271 -167 316 -183 71 -24 160 -28
217 -9 49 17 115 74 139 122 24 46 64 177 83 271 24 119 24 127 7 120 -17 -7
-347 19 -407 32 -80 17 -161 41 -390 116 -124 41 -286 93 -360 116 -121 38
-323 107 -375 130 -11 5 -45 15 -75 23 -30 8 -65 18 -77 22 -18 5 -23 1 -27
-17z m88 -168 c10 -11 47 -28 84 -39 37 -12 121 -37 187 -57 66 -20 172 -56
235 -80 172 -65 269 -87 380 -87 66 0 102 -4 118 -14 44 -29 347 -124 394
-124 31 0 67 26 78 56 7 17 17 24 36 24 21 0 25 -4 19 -17 -4 -10 -16 -58 -26
-108 -26 -118 -49 -166 -93 -200 -80 -61 -178 -47 -321 45 -42 28 -98 61 -124
74 -25 13 -59 30 -76 39 -40 21 -255 115 -477 208 -119 49 -279 89 -361 89
-24 0 -59 3 -77 6 l-32 7 6 76 c4 42 10 101 13 131 6 52 7 53 14 22 3 -18 14
-41 23 -51z m157 45 c52 -13 105 -28 116 -34 11 -6 77 -25 147 -42 70 -16 134
-34 144 -40 18 -9 225 -79 253 -85 46 -9 101 -30 110 -41 18 -22 0 -36 -38
-29 -42 8 -252 72 -273 84 -18 10 -182 58 -260 77 -30 7 -93 25 -140 40 -47
14 -107 31 -135 36 -53 10 -82 29 -71 47 10 16 40 14 147 -13z m1004 -289 c76
-19 90 -25 90 -42 0 -22 -14 -23 -90 -10 -82 14 -132 45 -108 68 8 9 5 10 108
-16z m228 -69 c21 -11 22 -34 3 -41 -24 -9 -86 15 -86 33 0 9 3 20 6 23 8 7
49 -1 77 -15z"/>
<path d="M10128 1952 c-42 -11 -41 -14 26 -76 l69 -63 46 14 c58 17 122 6 239
-42 132 -54 282 -167 316 -239 11 -23 27 -38 49 -45 76 -25 261 -39 316 -24
19 5 -4 19 -131 82 -84 42 -199 106 -253 142 -94 62 -145 92 -241 144 -22 12
-74 32 -115 45 -41 12 -94 29 -119 37 -45 15 -178 31 -202 25z"/>
<path d="M10256 1640 c-33 -37 -112 -189 -151 -293 -21 -55 -14 -78 34 -112
138 -97 193 -131 263 -165 95 -46 124 -50 133 -17 20 77 28 104 33 117 3 8 7
22 8 30 1 8 13 49 27 90 14 41 31 95 38 120 7 25 16 49 21 55 4 5 8 14 8 21 0
15 -95 69 -158 90 -26 9 -86 36 -134 60 l-86 43 -36 -39z m170 -76 c48 -23 68
-65 61 -126 -8 -63 -37 -110 -93 -149 -50 -34 -94 -44 -139 -31 -38 10 -95 91
-95 135 0 48 37 112 87 151 39 30 54 36 96 36 27 0 64 -7 83 -16z m157 -102
c-2 -18 -111 -330 -119 -340 -3 -5 -93 35 -123 55 l-24 15 52 18 c91 31 157
114 182 231 7 30 15 48 22 46 7 -2 11 -14 10 -25z"/>
<path d="M3580 5939 c0 -44 6 -133 14 -197 8 -64 22 -180 31 -257 13 -109 22
-152 43 -195 26 -52 29 -55 72 -62 73 -11 237 -9 263 3 41 19 50 53 28 103
-37 84 -131 233 -228 361 -65 86 -113 163 -143 227 -31 68 -50 97 -62 98 -16
0 -18 -10 -18 -81z m267 -381 c55 -92 93 -185 93 -226 0 -11 -14 -13 -70 -10
-80 4 -115 24 -143 81 -19 39 -41 169 -51 302 l-5 80 57 -62 c32 -35 85 -109
119 -165z"/>
<path d="M3741 4848 c-9 -102 -15 -217 -26 -520 -3 -109 -4 -108 73 -108 26 0
127 -14 225 -31 254 -44 273 -36 283 131 6 91 5 97 -23 155 -75 149 -117 216
-193 305 -109 128 -193 180 -291 180 l-37 0 -11 -112z m144 -51 c67 -40 165
-122 193 -160 45 -64 103 -219 110 -293 l5 -62 -43 -7 c-39 -7 -121 -3 -277
11 l-63 6 0 72 c0 39 7 125 15 191 8 66 15 150 15 188 0 71 6 78 45 54z"/>
<path d="M9655 6408 c-4 -18 -13 -51 -20 -73 -7 -22 -20 -92 -29 -155 -15
-103 -25 -167 -56 -365 -6 -33 -17 -120 -25 -193 -8 -73 -18 -149 -21 -170 -4
-27 -2 -41 9 -50 19 -16 68 17 191 131 79 73 100 99 130 161 58 123 69 175 64
295 -4 82 -10 119 -28 161 -38 88 -174 290 -196 290 -7 0 -15 -15 -19 -32z
m101 -302 c10 -39 19 -121 22 -183 4 -104 2 -116 -21 -167 -22 -47 -122 -164
-132 -154 -2 2 6 59 16 128 11 69 26 177 34 240 9 63 20 144 27 179 9 57 12
62 24 47 7 -10 21 -50 30 -90z"/>
<path d="M7037 5648 c-10 -290 5 -351 106 -432 39 -31 40 -31 150 -30 117 1
163 12 174 41 15 38 -104 210 -251 363 -67 69 -134 167 -151 219 -15 49 -22
10 -28 -161z m195 -229 c56 -72 105 -136 107 -141 6 -16 -94 -2 -137 19 -51
25 -69 63 -76 166 -3 48 -4 87 -2 87 2 0 51 -59 108 -131z"/>
<path d="M7287 4583 c-3 -5 -8 -30 -12 -58 -3 -27 -10 -72 -15 -100 -5 -27
-12 -66 -15 -85 -3 -19 -13 -50 -22 -70 -8 -19 -19 -44 -24 -55 -4 -11 -17
-48 -28 -81 -11 -34 -38 -100 -61 -148 -44 -96 -47 -111 -25 -120 67 -25 175
-12 265 34 49 25 136 113 162 163 33 64 32 168 -2 266 -39 108 -51 131 -88
172 -35 39 -127 94 -135 82z m117 -257 c18 -55 21 -170 6 -210 -22 -58 -147
-166 -192 -166 -10 0 -18 1 -18 3 0 2 24 52 54 112 51 103 80 180 106 284 13
50 21 46 44 -23z"/>
<path d="M5150 5473 c-6 -32 -22 -105 -35 -163 -47 -204 -70 -417 -51 -449 7
-11 31 -13 115 -8 125 7 139 11 148 46 13 53 -14 213 -63 366 -26 83 -54 176
-63 208 -9 31 -21 57 -28 57 -6 0 -17 -26 -23 -57z m64 -280 c22 -67 52 -221
44 -228 -2 -2 -25 -5 -53 -7 l-49 -3 -7 40 c-12 64 15 275 35 275 2 0 16 -35
30 -77z"/>
<path d="M6047 6014 c-6 -109 7 -312 23 -374 6 -19 10 -87 10 -150 0 -115 10
-184 28 -202 6 -6 24 4 49 29 21 21 65 60 96 86 91 76 127 166 126 312 0 108
-31 198 -92 266 -40 44 -107 91 -148 104 -13 4 -33 14 -44 21 -37 26 -42 18
-48 -92z m230 -212 c38 -130 14 -260 -65 -344 -25 -26 -47 -48 -51 -48 -3 0
-7 127 -9 283 l-3 282 55 -58 c42 -44 60 -71 73 -115z"/>
<path d="M7982 2638 c-21 -21 -14 -64 43 -270 48 -174 58 -226 76 -397 23
-227 34 -278 61 -292 45 -24 98 13 187 130 72 94 97 143 115 223 27 119 6 237
-65 360 -57 98 -135 154 -310 224 -99 39 -91 38 -107 22z m308 -260 c65 -62
96 -130 105 -229 7 -74 6 -77 -33 -155 -37 -73 -132 -208 -132 -187 0 63 -93
492 -146 670 -6 22 -3 21 74 -14 52 -23 99 -53 132 -85z"/>
<path d="M7107 2251 c-61 -68 -193 -336 -257 -521 -68 -197 -90 -316 -90 -488
1 -227 34 -311 142 -366 55 -27 60 -28 110 -16 115 27 169 73 229 195 60 124
99 291 99 430 0 178 -27 273 -131 457 -29 52 -43 161 -33 255 4 43 8 82 9 88
1 28 -37 11 -78 -34z m-8 -310 c13 -35 48 -111 78 -167 41 -77 58 -124 68
-181 16 -90 19 -193 5 -243 -54 -207 -73 -244 -157 -319 -44 -39 -65 -51 -89
-51 -43 0 -73 12 -107 44 l-29 26 7 128 c9 169 41 455 59 517 31 110 125 331
136 318 4 -4 17 -37 29 -72z"/>
</g>
</svg>
