<svg width="33" height="33" viewBox="0 0 33 33" fill="none" xmlns="http://www.w3.org/2000/svg">
<path d="M27.4162 13.8337C27.4162 21.8337 16.7495 29.8337 16.7495 29.8337C16.7495 29.8337 6.08286 21.8337 6.08286 13.8337C6.08286 11.0047 7.20666 8.29157 9.20705 6.29119C11.2074 4.2908 13.9205 3.16699 16.7495 3.16699C19.5785 3.16699 22.2916 4.2908 24.292 6.29119C26.2924 8.29157 27.4162 11.0047 27.4162 13.8337Z" stroke="black" stroke-width="2.66667" stroke-linecap="round" stroke-linejoin="round"/>
<path d="M16.7495 17.8335C18.9587 17.8335 20.7495 16.0426 20.7495 13.8335C20.7495 11.6244 18.9587 9.8335 16.7495 9.8335C14.5404 9.8335 12.7495 11.6244 12.7495 13.8335C12.7495 16.0426 14.5404 17.8335 16.7495 17.8335Z" stroke="black" stroke-width="2.66667" stroke-linecap="round" stroke-linejoin="round"/>
</svg>
