<svg width="33" height="33" viewBox="0 0 33 33" fill="none" xmlns="http://www.w3.org/2000/svg">
<path d="M29.8337 22.7267V26.7267C29.8352 27.0981 29.7591 27.4656 29.6104 27.8058C29.4616 28.1461 29.2434 28.4515 28.9698 28.7025C28.6961 28.9536 28.3731 29.1447 28.0213 29.2637C27.6696 29.3826 27.2968 29.4268 26.927 29.3934C22.8241 28.9476 18.883 27.5456 15.4203 25.3C12.1988 23.2529 9.46745 20.5216 7.42034 17.3C5.16698 13.8217 3.76466 9.86137 3.327 5.74005C3.29369 5.37134 3.3375 4.99973 3.45567 4.64888C3.57384 4.29803 3.76377 3.97563 4.01336 3.70221C4.26295 3.42879 4.56674 3.21033 4.90539 3.06074C5.24404 2.91116 5.61013 2.83373 5.98034 2.83338H9.98034C10.6274 2.82701 11.2547 3.05615 11.7454 3.47809C12.236 3.90003 12.5564 4.48598 12.647 5.12671C12.8158 6.4068 13.1289 7.66368 13.5803 8.87338C13.7597 9.35061 13.7986 9.86927 13.6922 10.3679C13.5859 10.8665 13.3388 11.3242 12.9803 11.6867L11.287 13.38C13.1851 16.7181 15.9489 19.482 19.287 21.38L20.9803 19.6867C21.3429 19.3282 21.8005 19.0812 22.2992 18.9748C22.7978 18.8685 23.3164 18.9073 23.7937 19.0867C25.0034 19.5381 26.2603 19.8512 27.5403 20.02C28.188 20.1114 28.7795 20.4377 29.2024 20.9367C29.6252 21.4358 29.8499 22.0728 29.8337 22.7267Z" stroke="black" stroke-width="2.66667" stroke-linecap="round" stroke-linejoin="round"/>
</svg>
