<svg width="33" height="33" viewBox="0 0 33 33" fill="none" xmlns="http://www.w3.org/2000/svg">
<path d="M12.4998 24.8333C12.4998 22.6241 10.7089 20.8333 8.49978 20.8333C6.29064 20.8333 4.49978 22.6241 4.49978 24.8333C4.49978 27.0424 6.29064 28.8333 8.49978 28.8333C10.7089 28.8333 12.4998 27.0424 12.4998 24.8333Z" stroke="white" stroke-width="2.66667" stroke-linecap="round" stroke-linejoin="round"/>
<path d="M28.4998 24.8333C28.4998 22.6241 26.7089 20.8333 24.4998 20.8333C22.2906 20.8333 20.4998 22.6241 20.4998 24.8333C20.4998 27.0424 22.2906 28.8333 24.4998 28.8333C26.7089 28.8333 28.4998 27.0424 28.4998 24.8333Z" stroke="white" stroke-width="2.66667" stroke-linecap="round" stroke-linejoin="round"/>
<path d="M5.83311 6.16635L21.6731 22.0063" stroke="white" stroke-width="2.66667" stroke-linecap="round" stroke-linejoin="round"/>
<path d="M19.8071 13.5403L27.1671 6.16695" stroke="white" stroke-width="2.66667" stroke-linecap="round" stroke-linejoin="round"/>
<path d="M11.3264 22.0063L16.4998 16.833" stroke="white" stroke-width="2.66667" stroke-linecap="round" stroke-linejoin="round"/>
</svg>
